<svg width="32" height="32" viewBox="0 0 32 32" xmlns="http://www.w3.org/2000/svg">
  <defs>
    <radialGradient id="gradTop" cx="50%" cy="0%" r="100%">
      <stop offset="0%" style="stop-color:#6e0000;stop-opacity:1" /> <stop offset="100%" style="stop-color:#1a0000;stop-opacity:1" /> </radialGradient>
    <radialGradient id="gradBottom" cx="50%" cy="100%" r="100%">
      <stop offset="0%" style="stop-color:#4a4a4a;stop-opacity:1" /> <stop offset="100%" style="stop-color:#1a1a1a;stop-opacity:1" /> </radialGradient>
     <radialGradient id="gradButton" cx="30%" cy="30%" r="70%">
      <stop offset="0%" style="stop-color:#555;stop-opacity:1" />
      <stop offset="100%" style="stop-color:#111;stop-opacity:1" />
    </radialGradient>
     <radialGradient id="glowCenter" cx="50%" cy="50%" r="50%">
      <stop offset="0%" stop-color="rgba(138, 43, 226, 0.8)" /> <stop offset="100%" stop-color="rgba(75, 0, 130, 0)" />
    </radialGradient>
  </defs>

  <path d="M 0 16 A 16 16 0 0 1 32 16 L 32 32 L 0 32 Z" fill="url(#gradBottom)"/>

  <path d="M 0 16 A 16 16 0 0 1 32 16 L 32 0 L 0 0 Z" fill="url(#gradTop)"/>

  <rect x="0" y="14" width="32" height="4" fill="#111"/>
  <rect x="0" y="14" width="32" height="1" fill="#222"/> <rect x="0" y="17" width="32" height="1" fill="#000"/> <circle cx="16" cy="16" r="6" fill="#111"/>
  <circle cx="16" cy="16" r="5" fill="url(#gradButton)" stroke="#222" stroke-width="1"/>
   <circle cx="16" cy="16" r="2.5" fill="url(#glowCenter)" />


</svg>
